<svg xmlns="http://www.w3.org/2000/svg" xmlns:xlink="http://www.w3.org/1999/xlink" width="1920" zoomAndPan="magnify" viewBox="0 0 1440 809.999993" height="1080" preserveAspectRatio="xMidYMid meet" version="1.0"><defs><g/><clipPath id="fc916f9529"><path d="M 501.167969 0 L 770.171875 0 L 770.171875 254.222656 L 501.167969 254.222656 Z M 501.167969 0 " clip-rule="nonzero"/></clipPath><clipPath id="0e7c3c2de4"><path d="M 580.363281 150.761719 L 748.488281 150.761719 L 748.488281 247.898438 L 580.363281 247.898438 Z M 580.363281 150.761719 " clip-rule="nonzero"/></clipPath><clipPath id="7063503e8a"><path d="M 638 217 L 661 217 L 661 247.898438 L 638 247.898438 Z M 638 217 " clip-rule="nonzero"/></clipPath></defs><path fill="#2c1586" d="M -3 0.00390625 L 1450.5 0.00390625 L 1450.5 809.996094 L -3 809.996094 L -3 0.00390625 " fill-opacity="1" fill-rule="nonzero"/><g fill="#fff7ef" fill-opacity="1"><g transform="translate(37.604817, 621.7858)"><g><path d="M 471.625 -328.03125 L 472.9375 -322.75 C 473.375 -318.800781 474.03125 -313.753906 474.90625 -307.609375 C 475.789062 -301.460938 476.5625 -294.21875 477.21875 -285.875 C 477.875 -277.53125 478.203125 -269.1875 478.203125 -260.84375 C 478.203125 -212.09375 475.457031 -170.8125 469.96875 -137 C 464.476562 -103.1875 455.472656 -75.851562 442.953125 -55 C 430.441406 -34.144531 413.867188 -18.992188 393.234375 -9.546875 C 372.597656 -0.109375 347.128906 4.609375 316.828125 4.609375 C 274.234375 4.609375 245.03125 -12.953125 229.21875 -48.078125 C 221.3125 -30.078125 210.441406 -16.796875 196.609375 -8.234375 C 182.785156 0.328125 162.476562 4.609375 135.6875 4.609375 C 101.4375 4.609375 76.84375 -5.269531 61.90625 -25.03125 C 46.976562 -44.789062 39.515625 -72.234375 39.515625 -107.359375 L 39.515625 -328.03125 L 114.609375 -328.03125 L 114.609375 -113.296875 C 114.609375 -94.847656 117.898438 -79.585938 124.484375 -67.515625 C 131.078125 -55.441406 142.273438 -49.40625 158.078125 -49.40625 C 178.285156 -49.40625 193.875 -59.285156 204.84375 -79.046875 C 215.820312 -98.804688 221.3125 -131.519531 221.3125 -177.1875 L 221.3125 -328.03125 L 295.75 -328.03125 C 295.3125 -295.09375 295.09375 -264.570312 295.09375 -236.46875 C 295.09375 -224.175781 294.984375 -211.878906 294.765625 -199.578125 C 294.546875 -187.285156 294.4375 -175.648438 294.4375 -164.671875 C 294.4375 -153.691406 294.4375 -143.703125 294.4375 -134.703125 C 294.4375 -125.703125 294.4375 -118.566406 294.4375 -113.296875 C 294.4375 -94.847656 297.945312 -79.585938 304.96875 -67.515625 C 312 -55.441406 323.414062 -49.40625 339.21875 -49.40625 C 354.59375 -49.40625 366.5625 -55.332031 375.125 -67.1875 C 383.6875 -79.039062 389.941406 -94.519531 393.890625 -113.625 C 397.847656 -132.726562 400.265625 -154.460938 401.140625 -178.828125 C 402.015625 -203.203125 402.453125 -227.90625 402.453125 -252.9375 C 402.453125 -263.03125 402.125 -272.578125 401.46875 -281.578125 C 400.8125 -290.585938 399.929688 -298.601562 398.828125 -305.625 C 397.734375 -312.65625 396.96875 -318.144531 396.53125 -322.09375 L 395.21875 -328.03125 Z M 471.625 -328.03125 "/></g></g></g><g fill="#fff7ef" fill-opacity="1"><g transform="translate(575.083446, 621.7858)"><g><path d="M 111.984375 2.640625 C 88.703125 2.640625 70.914062 -4.273438 58.625 -18.109375 C 46.332031 -31.941406 40.1875 -49.835938 40.1875 -71.796875 L 40.1875 -328.03125 L 115.265625 -328.03125 L 115.265625 -78.390625 C 115.265625 -68.285156 116.800781 -61.472656 119.875 -57.953125 C 122.945312 -54.441406 127.5625 -52.6875 133.71875 -52.6875 C 135.46875 -52.6875 137.332031 -52.6875 139.3125 -52.6875 C 141.289062 -52.6875 143.15625 -52.910156 144.90625 -53.359375 C 146.664062 -53.359375 148.644531 -53.578125 150.84375 -54.015625 L 158.75 -6.59375 C 155.675781 -4.832031 151.722656 -3.289062 146.890625 -1.96875 C 142.929688 -0.65625 137.988281 0.4375 132.0625 1.3125 C 126.132812 2.195312 119.441406 2.640625 111.984375 2.640625 Z M 79.046875 -474.25 C 93.097656 -474.25 103.851562 -470.078125 111.3125 -461.734375 C 118.78125 -453.390625 122.515625 -442.632812 122.515625 -429.46875 C 122.515625 -416.289062 118.671875 -405.3125 110.984375 -396.53125 C 103.304688 -387.75 92 -383.359375 77.0625 -383.359375 C 63.007812 -383.359375 52.140625 -387.640625 44.453125 -396.203125 C 36.773438 -404.765625 32.9375 -415.191406 32.9375 -427.484375 C 32.9375 -441.097656 36.773438 -452.296875 44.453125 -461.078125 C 52.140625 -469.859375 63.671875 -474.25 79.046875 -474.25 Z M 79.046875 -474.25 "/></g></g></g><g fill="#fff7ef" fill-opacity="1"><g transform="translate(773.345886, 621.7858)"><g><path d="M 247.015625 0 L 247.015625 -212.75 C 247.015625 -231.195312 243.71875 -246.019531 237.125 -257.21875 C 230.539062 -268.414062 219.34375 -274.015625 203.53125 -274.015625 C 193.4375 -274.015625 183.664062 -271.488281 174.21875 -266.4375 C 164.78125 -261.382812 156.328125 -254.023438 148.859375 -244.359375 C 141.398438 -234.703125 135.363281 -222.957031 130.75 -209.125 C 126.132812 -195.300781 123.828125 -179.828125 123.828125 -162.703125 L 123.828125 0 L 48.75 0 L 48.75 -165.984375 C 48.75 -192.335938 46.988281 -214.40625 43.46875 -232.1875 C 39.957031 -249.96875 36.226562 -264.347656 32.28125 -275.328125 C 27.445312 -288.066406 22.175781 -298.390625 16.46875 -306.296875 L 75.75 -330 C 80.144531 -325.164062 84.535156 -319.238281 88.921875 -312.21875 C 92.429688 -306.070312 95.941406 -298.492188 99.453125 -289.484375 C 102.972656 -280.484375 105.832031 -270.273438 108.03125 -258.859375 C 119.445312 -285.210938 135.910156 -304.207031 157.421875 -315.84375 C 178.941406 -327.476562 201.554688 -333.296875 225.265625 -333.296875 C 259.078125 -333.296875 283.554688 -323.082031 298.703125 -302.65625 C 313.859375 -282.238281 321.4375 -254.6875 321.4375 -220 L 321.4375 0 Z M 247.015625 0 "/></g></g></g><g fill="#fff7ef" fill-opacity="1"><g transform="translate(1164.599245, 621.7858)"><g><path d="M 6.59375 -328.03125 L 65.875 -328.03125 L 79.046875 -405.09375 L 140.953125 -418.921875 L 140.953125 -328.03125 L 221.984375 -328.03125 L 212.75 -274.671875 L 140.953125 -274.671875 L 140.953125 -79.703125 C 140.953125 -68.285156 144.023438 -60.925781 150.171875 -57.625 C 156.328125 -54.332031 163.132812 -52.6875 170.59375 -52.6875 C 176.75 -52.6875 182.898438 -53.125 189.046875 -54 C 195.191406 -54.882812 200.679688 -55.988281 205.515625 -57.3125 C 211.222656 -58.625 216.710938 -60.160156 221.984375 -61.921875 L 234.5 -12.515625 L 228.5625 -10.53125 C 224.613281 -8.78125 218.796875 -6.914062 211.109375 -4.9375 C 203.421875 -2.957031 194.414062 -1.203125 184.09375 0.328125 C 173.78125 1.867188 162.476562 2.640625 150.1875 2.640625 C 137.882812 2.640625 126.570312 1.320312 116.25 -1.3125 C 105.9375 -3.945312 97.046875 -8.226562 89.578125 -14.15625 C 82.117188 -20.082031 76.300781 -27.65625 72.125 -36.875 C 67.957031 -46.101562 65.875 -57.523438 65.875 -71.140625 L 65.875 -274.671875 L 6.59375 -274.671875 Z M 6.59375 -328.03125 "/></g></g></g><g clip-path="url(#fc916f9529)"><path fill="#2c1586" d="M 635.667969 -14.78125 C 561.386719 -14.78125 501.167969 45.4375 501.167969 119.71875 C 501.167969 194.003906 561.386719 254.222656 635.667969 254.222656 C 709.953125 254.222656 770.171875 194.003906 770.171875 119.71875 C 770.171875 45.4375 709.953125 -14.78125 635.667969 -14.78125 " fill-opacity="1" fill-rule="nonzero"/></g><g clip-path="url(#0e7c3c2de4)"><path fill="#fff7ef" d="M 580.367188 197.339844 L 748.480469 150.761719 L 696.078125 247.878906 L 647.773438 215.507812 L 748.230469 150.921875 L 642.179688 214.414062 L 635.628906 247.0625 L 622.800781 211 L 748.214844 150.914062 L 620.484375 208.542969 Z M 580.367188 197.339844 " fill-opacity="1" fill-rule="evenodd"/></g><g clip-path="url(#7063503e8a)"><path fill="#fff7ef" d="M 638.890625 247.792969 L 660.507812 228.089844 L 646.613281 217.851562 Z M 638.890625 247.792969 " fill-opacity="1" fill-rule="evenodd"/></g></svg>